<svg xmlns="http://www.w3.org/2000/svg" viewBox="0 0 24 24" fill="none">
  <circle cx="12" cy="12" r="10.25" fill="#2B6CB0" stroke="#F7FAFC" stroke-width="1.5"/>
  <circle cx="12" cy="12" r="7.2" fill="#FFFFFF" fill-opacity="0.14" stroke="#90CDF4" stroke-width="0.9"/>
  <path d="M9.2 7.6H13.3C15.2 7.6 16.35 8.55 16.35 10.1C16.35 11.15 15.8 11.95 14.8 12.28C16 12.58 16.7 13.5 16.7 14.72C16.7 16.48 15.45 17.6 13.18 17.6H9.2V7.6ZM12.76 11.62C13.82 11.62 14.44 11.14 14.44 10.31C14.44 9.48 13.82 9.04 12.76 9.04H11.09V11.62H12.76ZM12.98 16.16C14.18 16.16 14.87 15.64 14.87 14.71C14.87 13.78 14.18 13.2 12.98 13.2H11.09V16.16H12.98Z" fill="#F7FAFC"/>
</svg>
